<?xml version="1.0" encoding="utf-8"?>
<!-- Generator: Adobe Illustrator 16.0.0, SVG Export Plug-In . SVG Version: 6.00 Build 0)  -->
<!DOCTYPE svg PUBLIC "-//W3C//DTD SVG 1.1//EN" "http://www.w3.org/Graphics/SVG/1.1/DTD/svg11.dtd">
<svg version="1.1" id="Layer_1" xmlns="http://www.w3.org/2000/svg" xmlns:xlink="http://www.w3.org/1999/xlink" x="0px" y="0px"
	 width="16px" height="16px" viewBox="0 0 16 16" enable-background="new 0 0 16 16" xml:space="preserve">
<g>
	<defs>
		<rect id="SVGID_1_" width="16" height="16"/>
	</defs>
	<clipPath id="SVGID_2_">
		<use xlink:href="#SVGID_1_"  overflow="visible"/>
	</clipPath>
	<path clip-path="url(#SVGID_2_)" fill="#A8ABB2" d="M8.001,1.5c0.113,0,0.282,0.027,0.443,0.156l5.869,4.692
		c0.119,0.094,0.188,0.235,0.188,0.386V14c0,0.271-0.229,0.5-0.5,0.5H2c-0.271,0-0.5-0.229-0.5-0.5V6.735
		c0-0.152,0.067-0.293,0.186-0.387l5.869-4.692C7.716,1.527,7.887,1.5,8.001,1.5 M8.001,0C7.512,0,7.022,0.162,6.62,0.484
		L0.75,5.176C0.275,5.555,0,6.128,0,6.735V14c0,1.1,0.899,2,2,2h12c1.099,0,2-0.9,2-2V6.734c0-0.606-0.276-1.179-0.75-1.558
		L9.382,0.484C8.978,0.162,8.489,0,8.001,0"/>
	
		<polyline clip-path="url(#SVGID_2_)" fill="none" stroke="#A8ABB2" stroke-width="1.5" stroke-linecap="round" stroke-linejoin="round" points="
		14.001,6.48 8.001,9.993 2,6.48 	"/>
</g>
</svg>
