<?xml version="1.0" encoding="utf-8"?>
<!-- Generator: Adobe Illustrator 16.0.0, SVG Export Plug-In . SVG Version: 6.00 Build 0)  -->
<!DOCTYPE svg PUBLIC "-//W3C//DTD SVG 1.1//EN" "http://www.w3.org/Graphics/SVG/1.1/DTD/svg11.dtd">
<svg version="1.1" id="Layer_1" xmlns="http://www.w3.org/2000/svg" xmlns:xlink="http://www.w3.org/1999/xlink" x="0px" y="0px"
	 width="172.1px" height="45.314px" viewBox="0 0 172.1 45.314" enable-background="new 0 0 172.1 45.314" xml:space="preserve">
<g>
	<defs>
		<rect id="SVGID_1_" y="0" width="172.1" height="45.315"/>
	</defs>
	<clipPath id="SVGID_2_">
		<use xlink:href="#SVGID_1_"  overflow="visible"/>
	</clipPath>
	<path clip-path="url(#SVGID_2_)" fill="#FFFFFF" d="M55.46,14.732c7.548-1.436,10.521-0.44,11.129,2.189
		c0.53,2.287-0.931,5.69-2.681,9.77c-1.813,4.225-3.95,8.42-4.421,13.411c-0.347,4.373,0.017,6.055-1.234,4.815
		c-0.71-6.565,2.163-13.257,4.506-18.719c1.664-3.877,3.052-7.112,2.615-9c-0.724-3.127-6.075-1.579-8.226-1.014
		c-0.967,0.254-1.896,0.087-2.43,0.473c-1.499,1.084-2.336-1.14-1.462-1.487C53.668,15.008,54.89,14.84,55.46,14.732"/>
	<path clip-path="url(#SVGID_2_)" fill="#FFFFFF" d="M74.199,14.672c1,0.067-1.256,5.225-1.948,8.276
		c-0.695,3.068-1.396,6.311-1.98,9.323c-0.408,0.27-1.744,1.233-1.225-0.234c0.587-3.031,1.29-6.286,1.987-9.362
		c0.392-1.728,0.78-3.393,1.144-4.928C71.913,16.222,72.303,14.212,74.199,14.672"/>
	<path clip-path="url(#SVGID_2_)" fill="#FFFFFF" d="M6.045,26.664c9.144-0.291,17.71-0.405,26.391-0.514
		c10.467-0.131,20.923-0.074,32.388,0.214c1.458-0.096,2.841,0.991,1.29,1.164l-1.25,0.081l-0.054,0.002
		c-11.495-0.289-21.937-0.345-32.355-0.217c-8.571,0.107-17.189,0.459-26.413,0.834c-1.942,0.08-3.911,0.507-5.912,0.585
		C-0.759,26.135,3.093,26.758,6.045,26.664"/>
	<path clip-path="url(#SVGID_2_)" fill="#FFFFFF" d="M82.726,10.058c-2.475,8.26-3.98,15.071-5.604,22.68
		c-0.25,1.165-0.63,6.604-1.35,6.307l-1.217,0.268c-0.175-0.629,0.527-3,0.934-4.909c1.795-8.432,3.343-15.701,6.04-24.704
		L82.726,10.058z"/>
	<path clip-path="url(#SVGID_2_)" fill="#FFFFFF" d="M90.005,1.968c-1.008,2.146-2.205,3.293-3.011,5.38
		c-0.823,2.132-0.729,2.112-1.377,4.106c-1.628,5.01-2.697,9.351-3.27,11.969c-0.646,2.956-0.387,3.284,0.528,2.67
		c0.824-0.718,1.82-1.584,2.911-2.126c1.605-0.796,3.32-0.904,4.815,0.993c1.298,1.646,0.962,3.038,3.137-0.329
		c0.04-0.062,0.083-0.118,0.129-0.172c-0.151-0.247-0.1-0.566,0.196-0.987c0.598-0.854,1.092-1.033,1.433-0.795l0.002,0.002
		c0.097,0.067,0.137,0.235,0.124,0.471c0.646-0.241,1.402-0.468,2.066-0.407c1.02,0.094,1.746,0.712,1.586,2.463
		c-0.028,0.313-0.016,0.58,0.034,0.806c0.082,0.371,0.273,0.637,0.539,0.815c1.069,0.717,5.916,0.242,7.066-0.01
		c0.747-4.355,9.956-2.77,2.229,0.501c1.283,1.167,6.973,1.157,8.408,0.451c-0.018-0.202,0.025-0.407,0.119-0.612
		c0.141-0.313,0.416-0.594,0.758-0.841c1.341-0.967,2.419-1.236,3.074-1.137c0.354,0.054,0.628,0.208,0.807,0.431
		c0.207,0.255,0.279,0.571,0.202,0.914c-0.104,0.468-0.532,1.004-1.327,1.419c-0.224,0.117-0.478,0.229-0.755,0.335
		c2.062,0.482,5.975,0.834,12.88,0.87c8.405,0.042,15.124-0.021,21.22-0.219c3.134-0.102,6.107-0.238,9.067-0.415
		c2.799-0.167,7.663-1.836,8.479-0.61c0.376,1.302-3.333,1.521-5.685,1.681c-3.874,0.263-7.707,0.456-11.816,0.59
		c-6.137,0.198-12.87,0.263-21.27,0.22c-7.813-0.04-11.914-0.494-13.859-1.09c-0.437-0.134-0.782-0.28-1.052-0.437
		c-5.189,1.148-9.677,0.113-10.867-0.972c-1.861,0.488-6.85,0.985-8.369-0.035c-0.529-0.355-0.905-0.87-1.063-1.582
		c-0.078-0.349-0.1-0.743-0.059-1.185c0.074-0.808-0.145-1.082-0.458-1.111c-0.56-0.051-1.405,0.284-2.022,0.529
		c-0.142,0.056-0.276,0.109-0.402,0.154c-0.104,0.212-0.227,0.428-0.364,0.641c-0.817,1.264-3.146,4.188-4.386,1.687
		c-1.242-2.507-2.718-2.577-4.063-1.91c-0.943,0.468-1.874,1.277-2.645,1.949c-0.934,0.813-1.674,1.457-2.336,1.313
		c-0.859-0.188-1.029-1.527-0.228-5.188c0.581-2.656,1.663-7.05,3.299-12.087c0.62-1.909,1.321-3.913,2.105-5.955
		c0.471-1.224,1.441-3.429,1.951-4.485c0.404-0.842,0.713-0.675,1.231-0.44C90.508,0.549,90.448,1.022,90.005,1.968 M108.469,26.278
		C113.243,24.294,108.373,25.56,108.469,26.278 M119.03,27.426c0.612-0.173,1.159-0.37,1.578-0.589
		c0.303-0.158,0.499-0.308,0.603-0.433c-0.41-0.009-1.102,0.238-2.054,0.924C119.112,27.361,119.069,27.394,119.03,27.426"/>
	<path clip-path="url(#SVGID_2_)" fill="#FFFFFF" d="M65.334,9.638c4.949-0.333,9.726-0.388,14.44-0.286
		c5.079,0.109,10.099,0.399,15.189,0.713c0.52-0.004,1.125,1.459,0.138,1.412c-1.893,0.111-2.881-0.262-3.914-0.39
		c-3.79-0.47-7.603-0.406-11.436-0.489c-5.97-0.128-9.744,0.346-15.507,0.785c-0.277,0.058-0.319-0.834-0.285-1.424
		C63.991,9.403,64.824,9.673,65.334,9.638"/>
</g>
<g>
	<defs>
		<rect id="SVGID_3_" y="0" width="172.1" height="45.315"/>
	</defs>
	<clipPath id="SVGID_4_">
		<use xlink:href="#SVGID_3_"  overflow="visible"/>
	</clipPath>
	<path clip-path="url(#SVGID_4_)" fill="#FFFFFF" d="M17.34,18.976v-9.66h2.428c0.831,0,1.482,0.213,1.951,0.637
		c0.468,0.426,0.703,1.063,0.703,1.913c0,0.487-0.122,0.913-0.365,1.278c-0.243,0.366-0.567,0.621-0.969,0.767
		c0.5,0.102,0.902,0.376,1.208,0.822c0.305,0.446,0.458,0.966,0.458,1.558c0,0.867-0.234,1.531-0.701,1.992
		c-0.466,0.462-1.095,0.693-1.887,0.693H17.34z M18.137,13.647h1.884c0.5-0.013,0.891-0.174,1.175-0.482
		c0.282-0.307,0.424-0.75,0.424-1.325c0-0.603-0.158-1.058-0.474-1.363c-0.317-0.306-0.776-0.459-1.377-0.459h-1.632V13.647z
		 M18.137,14.325v3.974h2.03c0.562,0,1.001-0.174,1.317-0.522c0.316-0.348,0.474-0.838,0.474-1.468c0-0.586-0.14-1.063-0.421-1.431
		c-0.281-0.369-0.695-0.553-1.244-0.553H18.137z"/>
	<polygon clip-path="url(#SVGID_4_)" fill="#FFFFFF" points="31.149,14.431 31.188,14.431 33.524,9.316 34.433,9.316 31.56,15.432 
		31.56,18.975 30.764,18.975 30.764,15.393 27.905,9.316 28.827,9.316 	"/>
</g>
</svg>
